<svg width="60" height="60" viewBox="0 0 60 60" fill="none" xmlns="http://www.w3.org/2000/svg">
<circle cx="30" cy="30" r="30" fill="#FF647C"/>
<path fill-rule="evenodd" clip-rule="evenodd" d="M25.5434 37.9519C26.2574 37.9519 26.8384 38.5319 26.8384 39.2459C26.8384 39.9599 26.2574 40.5409 25.5434 40.5409C24.8294 40.5409 24.2494 39.9599 24.2494 39.2459C24.2494 38.5319 24.8294 37.9519 25.5434 37.9519ZM36.8237 37.9519C37.5387 37.9519 38.1197 38.5319 38.1197 39.2459C38.1197 39.9599 37.5387 40.5409 36.8237 40.5409C36.1097 40.5409 35.5297 39.9599 35.5297 39.2459C35.5297 38.5319 36.1097 37.9519 36.8237 37.9519ZM21.2676 21.0095L23.3476 21.3695C23.6826 21.4285 23.9376 21.7065 23.9666 22.0465L24.2016 24.8475L25.0754 24.8479C25.218 24.8479 25.3591 24.848 25.4987 24.8481L27.103 24.8488C27.2309 24.8489 27.3573 24.8489 27.4824 24.849L29.2538 24.85C29.3651 24.85 29.475 24.8501 29.5836 24.8502L30.825 24.851C30.9233 24.851 31.0204 24.8511 31.1163 24.8512L32.2081 24.852C32.2943 24.852 32.3793 24.8521 32.4632 24.8522L33.4151 24.853C33.49 24.8531 33.5638 24.8531 33.6365 24.8532L34.2621 24.8538C34.3285 24.8539 34.3939 24.854 34.4582 24.854L35.1828 24.8549C35.2393 24.8549 35.2949 24.855 35.3495 24.8551L35.9613 24.8559C36.0087 24.856 36.0552 24.8561 36.101 24.8562L36.4898 24.8568C36.5305 24.8569 36.5704 24.8569 36.6096 24.857L37.0427 24.8579C37.0758 24.858 37.1082 24.858 37.1399 24.8581L37.4065 24.8588C37.4341 24.8589 37.461 24.8589 37.4873 24.859L37.773 24.8599C37.7945 24.86 37.8153 24.8601 37.8356 24.8601L38.0034 24.8608C38.0204 24.8609 38.037 24.861 38.053 24.861L38.2227 24.862C38.2351 24.8621 38.247 24.8621 38.2584 24.8622L38.351 24.8629C38.3601 24.863 38.3688 24.8631 38.3772 24.8631L38.4438 24.8639C38.4503 24.8639 38.4564 24.864 38.4623 24.8641L38.5076 24.8648C38.5118 24.8649 38.5159 24.865 38.5197 24.8651L38.5483 24.8658C38.551 24.8659 38.5534 24.8659 38.5557 24.866L38.5764 24.867C38.5777 24.8671 38.5789 24.8672 38.58 24.8672C38.5897 24.8682 38.5912 24.8683 38.5926 24.8685C39.1496 24.9495 39.6396 25.2405 39.9736 25.6885C40.3076 26.1355 40.4476 26.6865 40.3676 27.2385L39.4186 33.7965C39.2396 35.0445 38.1556 35.9855 36.8956 35.9855H25.9746C24.6576 35.9855 23.5426 34.9575 23.4356 33.6425L22.5196 22.7485L21.0126 22.4885C20.6036 22.4165 20.3306 22.0295 20.4006 21.6205C20.4726 21.2115 20.8676 20.9455 21.2676 21.0095ZM24.8748 26.3478L24.3276 26.3475L24.9306 33.5195C24.9746 34.0715 25.4256 34.4855 25.9766 34.4855H36.8936C37.4146 34.4855 37.8596 34.0975 37.9336 33.5825L38.8836 27.0235C38.9056 26.8675 38.8666 26.7115 38.7716 26.5855C38.6776 26.4585 38.5396 26.3765 38.3836 26.3545C38.3764 26.3548 38.3591 26.355 38.3323 26.3552L38.2235 26.3559C38.2008 26.356 38.1757 26.356 38.1485 26.3561L37.582 26.357C37.5342 26.357 37.4845 26.3571 37.433 26.3571L36.101 26.357C36.0267 26.357 35.9509 26.357 35.8739 26.3569L34.3538 26.356C34.2627 26.3559 34.1706 26.3559 34.0776 26.3558L33.2175 26.3551C33.1195 26.355 33.0208 26.3549 32.9214 26.3549L32.0103 26.3541C31.9074 26.354 31.8041 26.3539 31.7002 26.3538L31.0727 26.3532C30.9674 26.3531 30.8617 26.353 30.7559 26.3529L29.7982 26.352C29.6914 26.3519 29.5846 26.3518 29.4777 26.3517L28.8371 26.3511C28.7304 26.351 28.6239 26.3509 28.5176 26.3508L27.8824 26.3502C27.7771 26.3502 27.6721 26.3501 27.5674 26.35L26.6369 26.3492C26.5349 26.3491 26.4336 26.349 26.3328 26.3489L25.1569 26.348C25.062 26.348 24.9679 26.3479 24.8748 26.3478ZM35.2875 28.5438C35.7015 28.5438 36.0375 28.8798 36.0375 29.2938C36.0375 29.7078 35.7015 30.0438 35.2875 30.0438H32.5155C32.1005 30.0438 31.7655 29.7078 31.7655 29.2938C31.7655 28.8798 32.1005 28.5438 32.5155 28.5438H35.2875Z" fill="white"/>
</svg>
