<svg width="43" height="13" viewBox="0 0 43 13" fill="none" xmlns="http://www.w3.org/2000/svg">
<path d="M0.409091 12V0.363636H1.81818V10.75H7.22727V12H0.409091ZM18.7741 6.18182C18.7741 7.40909 18.5526 8.4697 18.1094 9.36364C17.6662 10.2576 17.0582 10.947 16.2855 11.4318C15.5128 11.9167 14.6302 12.1591 13.6378 12.1591C12.6454 12.1591 11.7628 11.9167 10.9901 11.4318C10.2173 10.947 9.60938 10.2576 9.16619 9.36364C8.72301 8.4697 8.50142 7.40909 8.50142 6.18182C8.50142 4.95455 8.72301 3.89394 9.16619 3C9.60938 2.10606 10.2173 1.41667 10.9901 0.931818C11.7628 0.446969 12.6454 0.204545 13.6378 0.204545C14.6302 0.204545 15.5128 0.446969 16.2855 0.931818C17.0582 1.41667 17.6662 2.10606 18.1094 3C18.5526 3.89394 18.7741 4.95455 18.7741 6.18182ZM17.4105 6.18182C17.4105 5.17424 17.242 4.32386 16.9048 3.63068C16.5715 2.9375 16.1188 2.41288 15.5469 2.05682C14.9787 1.70076 14.3423 1.52273 13.6378 1.52273C12.9332 1.52273 12.295 1.70076 11.723 2.05682C11.1548 2.41288 10.7022 2.9375 10.3651 3.63068C10.0317 4.32386 9.86506 5.17424 9.86506 6.18182C9.86506 7.18939 10.0317 8.03977 10.3651 8.73295C10.7022 9.42614 11.1548 9.95076 11.723 10.3068C12.295 10.6629 12.9332 10.8409 13.6378 10.8409C14.3423 10.8409 14.9787 10.6629 15.5469 10.3068C16.1188 9.95076 16.5715 9.42614 16.9048 8.73295C17.242 8.03977 17.4105 7.18939 17.4105 6.18182ZM29.098 4C28.973 3.61742 28.8082 3.27462 28.6037 2.97159C28.4029 2.66477 28.1624 2.40341 27.8821 2.1875C27.6056 1.97159 27.2912 1.80682 26.9389 1.69318C26.5866 1.57955 26.2003 1.52273 25.7798 1.52273C25.0904 1.52273 24.4635 1.70076 23.8991 2.05682C23.3348 2.41288 22.8859 2.9375 22.5526 3.63068C22.2192 4.32386 22.0526 5.17424 22.0526 6.18182C22.0526 7.18939 22.2211 8.03977 22.5582 8.73295C22.8954 9.42614 23.3518 9.95076 23.9276 10.3068C24.5033 10.6629 25.151 10.8409 25.8707 10.8409C26.5374 10.8409 27.1245 10.6989 27.6321 10.4148C28.1435 10.1269 28.5412 9.72159 28.8253 9.19886C29.1132 8.67235 29.2571 8.05303 29.2571 7.34091L29.6889 7.43182H26.1889V6.18182H30.6207V7.43182C30.6207 8.39015 30.4162 9.22348 30.0071 9.93182C29.6018 10.6402 29.0412 11.1894 28.3253 11.5795C27.6132 11.9659 26.795 12.1591 25.8707 12.1591C24.8404 12.1591 23.9351 11.9167 23.1548 11.4318C22.3783 10.947 21.7723 10.2576 21.3366 9.36364C20.9048 8.4697 20.6889 7.40909 20.6889 6.18182C20.6889 5.26136 20.812 4.43371 21.0582 3.69886C21.3082 2.96023 21.6605 2.33144 22.1151 1.8125C22.5696 1.29356 23.1075 0.895833 23.7287 0.619318C24.3499 0.342803 25.0336 0.204545 25.7798 0.204545C26.3935 0.204545 26.9654 0.297348 27.4957 0.482954C28.0298 0.664772 28.5052 0.924242 28.9219 1.26136C29.3423 1.5947 29.6927 1.99432 29.973 2.46023C30.2533 2.92235 30.4465 3.43561 30.5526 4H29.098ZM42.8523 6.18182C42.8523 7.40909 42.6307 8.4697 42.1875 9.36364C41.7443 10.2576 41.1364 10.947 40.3636 11.4318C39.5909 11.9167 38.7083 12.1591 37.7159 12.1591C36.7235 12.1591 35.8409 11.9167 35.0682 11.4318C34.2955 10.947 33.6875 10.2576 33.2443 9.36364C32.8011 8.4697 32.5795 7.40909 32.5795 6.18182C32.5795 4.95455 32.8011 3.89394 33.2443 3C33.6875 2.10606 34.2955 1.41667 35.0682 0.931818C35.8409 0.446969 36.7235 0.204545 37.7159 0.204545C38.7083 0.204545 39.5909 0.446969 40.3636 0.931818C41.1364 1.41667 41.7443 2.10606 42.1875 3C42.6307 3.89394 42.8523 4.95455 42.8523 6.18182ZM41.4886 6.18182C41.4886 5.17424 41.3201 4.32386 40.983 3.63068C40.6496 2.9375 40.197 2.41288 39.625 2.05682C39.0568 1.70076 38.4205 1.52273 37.7159 1.52273C37.0114 1.52273 36.3731 1.70076 35.8011 2.05682C35.233 2.41288 34.7803 2.9375 34.4432 3.63068C34.1098 4.32386 33.9432 5.17424 33.9432 6.18182C33.9432 7.18939 34.1098 8.03977 34.4432 8.73295C34.7803 9.42614 35.233 9.95076 35.8011 10.3068C36.3731 10.6629 37.0114 10.8409 37.7159 10.8409C38.4205 10.8409 39.0568 10.6629 39.625 10.3068C40.197 9.95076 40.6496 9.42614 40.983 8.73295C41.3201 8.03977 41.4886 7.18939 41.4886 6.18182Z" fill="black"/>
</svg>
